<?xml version="1.0" encoding="UTF-8"?>
<svg xmlns="http://www.w3.org/2000/svg" xmlns:xlink="http://www.w3.org/1999/xlink" width="841.889893pt" height="595.28pt" viewBox="0 0 841.889893 595.28" version="1.1">
<g id="surface1">
<path style=" stroke:none;fill-rule:nonzero;fill:rgb(100%,100%,100%);fill-opacity:1;" d="M 0 595.28125 L 841.890625 595.28125 L 841.890625 0.00390625 L 0 0.00390625 Z M 0 595.28125 "/>
<path style=" stroke:none;fill-rule:nonzero;fill:rgb(11.799622%,47.499084%,56.498718%);fill-opacity:1;" d="M 78.199219 276.640625 C 85.199219 276.640625 91.867188 276.644531 98.535156 276.640625 C 110.4375 276.632813 122.339844 276.546875 134.242188 276.640625 C 139.386719 276.679688 143.761719 275.09375 147.832031 271.960938 C 163.503906 259.898438 179.265625 247.957031 195 235.976563 C 195.699219 235.441406 196.445313 234.972656 197.582031 234.183594 C 197.460938 237.382813 195.71875 239.511719 194.613281 241.785156 C 184.816406 261.960938 174.738281 282.003906 165.089844 302.25 C 159.96875 312.996094 151.445313 317.425781 140.074219 317.46875 C 130.257813 317.503906 120.4375 317.425781 110.617188 317.429688 C 109.460938 317.429688 108.238281 317.152344 106.859375 318.105469 C 106.179688 325.84375 105.4375 333.804688 104.789063 341.773438 C 102.898438 365.039063 101.074219 388.308594 99.160156 411.570313 C 98.625 418.050781 97.46875 419.316406 91.046875 420.808594 C 81.941406 422.921875 72.816406 424.96875 63.691406 426.992188 C 59.828125 427.847656 58.339844 426.570313 58.847656 422.679688 C 62.351563 395.871094 65.894531 369.066406 69.449219 342.265625 C 72.316406 320.621094 75.21875 298.984375 78.199219 276.640625 "/>
<path style=" stroke:none;fill-rule:nonzero;fill:rgb(11.799622%,47.499084%,56.498718%);fill-opacity:1;" d="M 118.109375 185.976563 C 118.328125 182.117188 119.6875 179.300781 122.4375 177.132813 C 134.234375 167.855469 145.976563 158.511719 157.796875 149.269531 C 162.042969 145.949219 164.808594 146.722656 166.578125 151.742188 C 174.027344 172.847656 181.390625 193.988281 188.792969 215.113281 C 190.414063 219.742188 189.28125 223.683594 185.535156 226.679688 C 173.578125 236.238281 161.574219 245.730469 149.507813 255.144531 C 145.746094 258.082031 142.804688 257.277344 141.234375 252.839844 C 133.671875 231.449219 126.230469 210.019531 118.761719 188.601563 C 118.425781 187.632813 118.265625 186.605469 118.109375 185.976563 "/>
<path style=" stroke:none;fill-rule:nonzero;fill:rgb(11.799622%,47.499084%,56.498718%);fill-opacity:1;" d="M 78.800781 185.433594 C 85.941406 185.433594 93.082031 185.390625 100.222656 185.445313 C 105.609375 185.484375 108.828125 187.75 110.609375 192.875 C 117.808594 213.621094 124.972656 234.378906 132.09375 255.148438 C 133.976563 260.636719 132.234375 263.023438 126.390625 263.039063 C 111.960938 263.085938 97.53125 263.09375 83.101563 263.058594 C 77.613281 263.042969 74.28125 260.632813 72.445313 255.335938 C 65.292969 234.730469 58.167969 214.113281 51.089844 193.484375 C 49.09375 187.664063 50.734375 185.46875 56.933594 185.441406 C 64.222656 185.410156 71.511719 185.433594 78.800781 185.433594 "/>
<path style=" stroke:none;fill-rule:nonzero;fill:rgb(11.799622%,47.499084%,56.498718%);fill-opacity:1;" d="M 178.199219 326.757813 C 191.207031 327.085938 202.9375 334.402344 216.082031 331.402344 C 218.21875 350.875 220.425781 370.792969 222.574219 390.714844 C 224.46875 408.296875 226.300781 425.882813 228.136719 443.464844 C 228.664063 448.5 227.53125 449.597656 222.828125 448.550781 C 213.851563 446.558594 204.902344 444.429688 195.910156 442.492188 C 191.542969 441.550781 189.285156 439.105469 188.835938 434.609375 C 185.304688 399.269531 181.695313 363.9375 178.121094 328.601563 C 178.0625 328.035156 178.164063 327.460938 178.199219 326.757813 "/>
<path style=" stroke:none;fill-rule:nonzero;fill:rgb(11.799622%,47.499084%,56.498718%);fill-opacity:1;" d="M 690.378906 263.039063 C 689.601563 258.265625 687.386719 255.449219 682.773438 254.46875 L 682.773438 263.039063 Z M 413.515625 247.089844 C 407.71875 247.640625 405.609375 250.007813 405.371094 255.964844 C 408.117188 255.796875 410.878906 256.515625 413.515625 255.605469 Z M 628.984375 263.25 C 628.984375 260.503906 628.921875 258.433594 628.996094 256.371094 C 629.304688 247.5625 635.746094 240.941406 644.964844 240.339844 C 649.84375 240.015625 654.757813 240.28125 659.636719 240.28125 C 659.960938 244.96875 657.5 248.078125 653.109375 248.6875 C 652.085938 248.828125 651.027344 248.742188 649.988281 248.742188 C 639.527344 248.742188 636.554688 252.011719 637.441406 262.917969 L 674.21875 262.917969 L 674.21875 240.804688 C 676.289063 240.25 677.972656 240.652344 678.746094 241.796875 C 681.195313 245.402344 685.152344 245.980469 688.699219 247.578125 C 694.722656 250.296875 697.984375 255.339844 698.59375 261.898438 C 698.878906 264.980469 698.640625 268.109375 698.640625 271.128906 C 696.742188 272.222656 694.921875 271.78125 693.183594 271.78125 C 607.046875 271.808594 520.910156 271.804688 434.769531 271.824219 C 429.03125 271.824219 423.859375 270.390625 419.835938 266.105469 C 418.441406 264.625 416.882813 264.378906 415.03125 264.398438 C 409.101563 264.457031 403.171875 264.421875 396.964844 264.421875 C 396.433594 256.324219 395.621094 248.597656 402.386719 242.703125 C 402.386719 242.703125 421.0625 232.320313 421.785156 231.917969 C 421.785156 237.6875 421.777344 243.085938 421.785156 248.480469 C 421.800781 259.253906 425.78125 263.242188 436.605469 263.242188 C 499.089844 263.253906 561.570313 263.25 624.054688 263.25 "/>
<path style=" stroke:none;fill-rule:nonzero;fill:rgb(11.799622%,47.499084%,56.498718%);fill-opacity:1;" d="M 202.511719 219.800781 C 200.308594 219.074219 200.113281 217.269531 199.609375 215.785156 C 192.601563 195.117188 185.632813 174.441406 178.675781 153.761719 C 176.472656 147.207031 177.828125 145.28125 184.609375 145.273438 C 196.664063 145.257813 208.722656 145.242188 220.777344 145.273438 C 226.480469 145.285156 228.015625 147.367188 226.195313 152.800781 C 219.128906 173.910156 211.996094 195 204.890625 216.101563 C 204.421875 217.496094 204.152344 219.003906 202.511719 219.800781 "/>
<path style=" stroke:none;fill-rule:nonzero;fill:rgb(11.799622%,47.499084%,56.498718%);fill-opacity:1;" d="M 664.078125 416.160156 C 664.265625 402.203125 653.3125 391.15625 639.074219 390.9375 C 624.277344 390.707031 613.027344 401.175781 612.855469 415.339844 C 612.675781 429.984375 623.148438 440.734375 637.769531 440.910156 C 652.867188 441.089844 663.882813 430.730469 664.078125 416.160156 M 602.96875 415.957031 C 603.097656 395.761719 617.941406 381.746094 639.015625 381.929688 C 659.234375 382.105469 674.195313 396.792969 674.007813 416.28125 C 673.820313 435.980469 658.484375 449.960938 637.273438 449.777344 C 617.34375 449.605469 602.847656 435.3125 602.96875 415.957031 "/>
<path style=" stroke:none;fill-rule:nonzero;fill:rgb(11.799622%,47.499084%,56.498718%);fill-opacity:1;" d="M 404.945313 439.941406 C 411.917969 439.941406 418.488281 440.441406 424.953125 439.832031 C 436.734375 438.722656 445.148438 429.628906 445.925781 418.035156 C 446.792969 405.085938 440.171875 395.351563 428.019531 392.425781 C 420.480469 390.609375 412.773438 391.589844 404.945313 391.628906 Z M 395.199219 448.996094 L 395.199219 383.511719 C 397.347656 382.246094 399.625 382.875 401.765625 382.90625 C 411.253906 383.042969 420.8125 382.039063 430.214844 383.972656 C 445.742188 387.167969 455.808594 399.777344 455.875 415.882813 C 455.9375 431.40625 445.480469 444.8125 430.140625 447.917969 C 418.730469 450.226563 407.105469 448.429688 395.199219 448.996094 "/>
<path style=" stroke:none;fill-rule:nonzero;fill:rgb(11.799622%,47.499084%,56.498718%);fill-opacity:1;" d="M 380.648438 448.660156 C 375.398438 450.054688 371.8125 448.261719 368.34375 444.113281 C 356.132813 429.523438 343.519531 415.273438 331.074219 400.878906 C 330.601563 400.332031 330.292969 399.648438 329.046875 399.492188 L 329.046875 448.289063 C 326.015625 449.515625 323.226563 448.792969 320.171875 448.933594 L 320.171875 383.199219 C 324.238281 382.5625 327.554688 382.550781 330.878906 386.527344 C 343.929688 402.148438 357.476563 417.351563 371.53125 433.507813 L 371.53125 383.671875 C 374.699219 382.191406 377.5 383.226563 380.648438 382.726563 "/>
<path style=" stroke:none;fill-rule:nonzero;fill:rgb(61.599731%,56.098938%,41.999817%);fill-opacity:1;" d="M 210.714844 218.90625 C 210.003906 216.886719 211.488281 215.746094 212.351563 214.480469 C 224.328125 196.90625 236.339844 179.351563 248.375 161.8125 C 251.445313 157.34375 254.566406 157.1875 257.984375 161.457031 C 263.839844 168.773438 269.609375 176.15625 275.300781 183.601563 C 278.324219 187.554688 277.507813 190.742188 272.816406 192.820313 C 253.246094 201.488281 233.625 210.039063 214.019531 218.628906 C 212.945313 219.097656 211.863281 219.679688 210.714844 218.90625 "/>
<path style=" stroke:none;fill-rule:nonzero;fill:rgb(11.799622%,47.499084%,56.498718%);fill-opacity:1;" d="M 751.523438 244.484375 C 759.28125 244.484375 766.714844 244.214844 774.121094 244.550781 C 783.851563 244.992188 791.300781 252.925781 791.566406 262.609375 C 791.644531 265.425781 791.578125 268.242188 791.578125 271.4375 L 707.316406 271.4375 C 706.292969 269.996094 706.800781 268.316406 706.792969 266.746094 C 706.746094 254.257813 706.730469 241.769531 706.78125 229.28125 C 706.808594 223.417969 709.160156 220.699219 715.011719 219.972656 L 715.011719 262.925781 L 782.988281 262.925781 C 782.175781 256.5625 778.960938 253.289063 772.972656 253.019531 C 768.523438 252.820313 764.046875 253.136719 759.597656 252.933594 C 754.300781 252.691406 751.890625 250.140625 751.523438 244.484375 "/>
<path style=" stroke:none;fill-rule:nonzero;fill:rgb(11.799622%,47.499084%,56.498718%);fill-opacity:1;" d="M 249.761719 382.984375 L 258.496094 382.984375 C 259.667969 384.402344 259.15625 385.953125 259.164063 387.378906 C 259.21875 399.285156 259.226563 411.191406 259.226563 423.097656 C 259.222656 430.695313 261.519531 437.101563 269.292969 439.734375 C 277.445313 442.496094 285.457031 442.238281 292.355469 436.207031 C 295.871094 433.132813 296.714844 428.875 296.742188 424.449219 C 296.804688 412.246094 296.796875 400.039063 296.820313 387.835938 C 296.824219 386.375 296.820313 384.910156 296.820313 383.152344 L 305.949219 383.152344 C 306.988281 384.363281 306.488281 385.917969 306.492188 387.339844 C 306.539063 398.355469 306.539063 409.367188 306.515625 420.382813 C 306.472656 441.808594 292.828125 453.085938 271.539063 449.308594 C 258.300781 446.957031 250.683594 439.949219 249.953125 427.066406 C 249.128906 412.5625 249.761719 397.976563 249.761719 382.984375 "/>
<path style=" stroke:none;fill-rule:nonzero;fill:rgb(11.799622%,47.499084%,56.498718%);fill-opacity:1;" d="M 516.238281 397.214844 C 512.742188 405.761719 509.726563 413.136719 506.609375 420.753906 L 526.707031 420.753906 C 523.222656 412.925781 519.953125 405.566406 516.238281 397.214844 M 549.035156 448.664063 C 548.203125 448.835938 547.921875 448.941406 547.632813 448.949219 C 539.632813 449.222656 538.734375 449.480469 536.515625 441.847656 C 533.460938 431.34375 531 429.753906 523.832031 429.503906 C 515.832031 429.417969 513.984375 429.371094 512.496094 429.371094 C 502.566406 429.371094 502.566406 429.371094 498.746094 438.730469 C 498.296875 439.828125 497.898438 440.949219 497.429688 442.039063 C 494.082031 449.867188 494.078125 449.867188 485.328125 448.574219 C 484.972656 446.972656 485.976563 445.730469 486.539063 444.410156 C 494.722656 425.160156 502.941406 405.925781 511.167969 386.695313 C 512.070313 384.585938 512.503906 382.429688 515.886719 382.417969 C 519.253906 382.40625 520.421875 383.878906 521.613281 386.585938 C 530.164063 406 538.867188 425.347656 547.511719 444.722656 C 548.046875 445.921875 548.464844 447.175781 549.035156 448.664063 "/>
<path style=" stroke:none;fill-rule:nonzero;fill:rgb(11.799622%,47.499084%,56.498718%);fill-opacity:1;" d="M 565.769531 411.421875 C 569.46875 412.0625 577.957031 411.96875 580.519531 411.304688 C 585.003906 410.136719 587.84375 406.285156 587.835938 401.386719 C 587.824219 396.445313 585.390625 392.933594 580.710938 391.964844 C 575.804688 390.949219 570.816406 391.25 565.769531 391.695313 Z M 565.617188 420.496094 L 565.617188 448.671875 L 556.074219 448.671875 L 556.074219 382.757813 C 565.742188 383.28125 575.53125 381.460938 585.109375 383.960938 C 593.429688 386.132813 598.050781 393.519531 597.699219 402.742188 C 597.382813 411.085938 591.863281 417.515625 583.554688 419.429688 C 577.835938 420.742188 572.015625 420.066406 565.617188 420.496094 "/>
<path style=" stroke:none;fill-rule:nonzero;fill:rgb(63.899231%,72.499084%,13.299561%);fill-opacity:1;" d="M 215.632813 227.371094 C 216.929688 225.175781 219.285156 225.421875 221.15625 225.03125 C 239.746094 221.148438 258.371094 217.40625 276.984375 213.632813 C 278.441406 213.339844 279.90625 213.039063 281.382813 212.898438 C 285.449219 212.511719 287.726563 214.226563 287.882813 218.316406 C 288.109375 224.257813 288.101563 230.21875 287.914063 236.164063 C 287.777344 240.5 284.839844 242.453125 280.121094 241.519531 C 268.046875 239.121094 255.988281 236.632813 243.921875 234.175781 C 235.78125 232.519531 227.640625 230.84375 219.496094 229.195313 C 218.074219 228.90625 216.597656 228.78125 215.632813 227.371094 "/>
<path style=" stroke:none;fill-rule:nonzero;fill:rgb(11.799622%,47.499084%,56.498718%);fill-opacity:1;" d="M 754.421875 431.941406 C 759.164063 437.207031 764.027344 440.910156 770.769531 441.238281 C 775.839844 441.484375 780.210938 439.464844 781.578125 435.796875 C 783.277344 431.234375 781.289063 427.710938 777.984375 424.71875 C 773.429688 420.597656 767.699219 418.222656 762.792969 414.613281 C 758.234375 411.261719 754.449219 407.386719 754.019531 401.339844 C 753.257813 390.628906 759.957031 383.058594 771.070313 382.058594 C 772.546875 381.925781 774.050781 381.9375 775.527344 382.042969 C 786.460938 382.820313 788.941406 385.546875 788.644531 396.558594 C 786.796875 396.730469 785.84375 395.179688 784.632813 394.34375 C 780.398438 391.410156 775.75 390.214844 770.691406 390.894531 C 767.304688 391.347656 764.222656 392.757813 763.109375 396.253906 C 762.011719 399.722656 763.546875 402.621094 766.132813 405.011719 C 769.335938 407.96875 773.300781 409.765625 776.902344 412.109375 C 778.644531 413.242188 780.503906 414.207031 782.171875 415.4375 C 790.554688 421.621094 793.457031 430.75 789.832031 439.28125 C 786.527344 447.054688 777.671875 451.164063 767.71875 449.539063 C 767.425781 449.488281 767.140625 449.402344 766.847656 449.34375 C 754.777344 446.933594 753.339844 445.027344 754.421875 431.941406 "/>
<path style=" stroke:none;fill-rule:nonzero;fill:rgb(11.799622%,47.499084%,56.498718%);fill-opacity:1;" d="M 491.96875 362.394531 C 479.019531 347.566406 466.871094 333.652344 454.023438 318.9375 L 454.023438 360.46875 C 451.957031 361.753906 450.199219 361.230469 448.121094 361.113281 L 448.121094 303.601563 C 461.105469 318.484375 473.277344 332.433594 486.386719 347.460938 L 486.386719 305.613281 C 488.40625 304.339844 490.019531 304.730469 491.96875 304.898438 "/>
<path style=" stroke:none;fill-rule:nonzero;fill:rgb(11.799622%,47.499084%,56.498718%);fill-opacity:1;" d="M 627.214844 329.308594 C 633.042969 329.226563 638.410156 330.019531 643.664063 328.726563 C 648.179688 327.609375 650.660156 324.089844 650.550781 319.570313 C 650.441406 315.234375 647.976563 311.960938 643.539063 310.992188 C 638.15625 309.820313 632.710938 310.480469 627.214844 310.460938 Z M 621.3125 304.894531 C 629.464844 304.621094 637.496094 304.09375 645.367188 305.636719 C 652.789063 307.09375 656.925781 313.078125 656.601563 320.585938 C 656.285156 327.949219 651.566406 333.179688 643.964844 334.5 C 642.089844 334.824219 640.183594 334.953125 637.46875 335.269531 C 644.246094 344.085938 650.597656 352.351563 657.042969 360.730469 C 652.390625 362.332031 649.613281 360.785156 647.058594 357.183594 C 642.339844 350.523438 637.140625 344.203125 632.148438 337.742188 C 630.960938 336.207031 629.902344 334.417969 627.019531 335.800781 L 627.019531 360.6875 C 624.890625 361.542969 623.210938 361.511719 621.3125 360.804688 "/>
<path style=" stroke:none;fill-rule:nonzero;fill:rgb(11.799622%,47.499084%,56.498718%);fill-opacity:1;" d="M 685.820313 382.984375 L 694.929688 382.984375 L 694.929688 439.984375 L 724.164063 439.984375 C 725.160156 443.148438 724.828125 445.90625 724.707031 448.828125 L 685.820313 448.828125 "/>
<path style=" stroke:none;fill-rule:nonzero;fill:rgb(11.799622%,47.499084%,56.498718%);fill-opacity:1;" d="M 759.210938 304.972656 L 790.914063 304.972656 C 791.851563 306.535156 791.265625 308.140625 791.371094 310.269531 L 764.925781 310.269531 L 764.925781 327.730469 L 790.363281 327.730469 C 791.585938 329.824219 791.078125 331.414063 791.085938 333.460938 L 764.976563 333.460938 L 764.976563 355.464844 L 790.277344 355.464844 C 791.539063 357.460938 791.351563 359.140625 790.710938 361.074219 L 759.210938 361.074219 "/>
<path style=" stroke:none;fill-rule:nonzero;fill:rgb(11.799622%,47.499084%,56.498718%);fill-opacity:1;" d="M 610.8125 305.019531 C 611.308594 306.933594 611.324219 308.386719 610.847656 310.234375 L 584.851563 310.234375 L 584.851563 327.769531 L 610.40625 327.769531 C 611.425781 329.820313 611.0625 331.414063 610.832031 333.4375 L 584.820313 333.4375 L 584.820313 355.476563 L 610.53125 355.476563 C 611.410156 357.535156 610.988281 359.132813 610.992188 361.015625 L 579.136719 361.015625 L 579.136719 305.019531 "/>
<path style=" stroke:none;fill-rule:nonzero;fill:rgb(11.799622%,47.499084%,56.498718%);fill-opacity:1;" d="M 428.238281 305.371094 C 430.347656 304.472656 432.035156 304.476563 434.222656 305.398438 C 433.699219 319.792969 435.332031 334.355469 433.171875 348.808594 C 431.890625 357.367188 424.050781 363.011719 415.046875 362.644531 C 404.832031 362.230469 397.398438 356.417969 397.027344 347.082031 C 396.46875 333.152344 396.882813 319.183594 396.882813 305.21875 C 398.546875 304.527344 400.128906 304.65625 402.25 305.160156 C 402.25 308.300781 402.226563 311.515625 402.253906 314.734375 C 402.347656 324.992188 402.152344 335.265625 402.664063 345.503906 C 403.035156 352.914063 408.410156 357.207031 415.816406 357.066406 C 422.664063 356.9375 427.816406 352.109375 428.007813 344.867188 C 428.308594 333.273438 428.183594 321.671875 428.238281 310.070313 C 428.246094 308.472656 428.238281 306.875 428.238281 305.371094 "/>
<path style=" stroke:none;fill-rule:nonzero;fill:rgb(11.799622%,47.499084%,56.498718%);fill-opacity:1;" d="M 662.785156 350.792969 C 664.316406 349.765625 665.640625 348.875 666.976563 347.976563 C 668.941406 348.976563 669.503906 350.972656 670.722656 352.398438 C 673.390625 355.515625 676.511719 357.457031 680.800781 356.917969 C 688.554688 355.945313 692.082031 347.902344 687.386719 341.648438 C 683.765625 336.832031 678.691406 333.59375 674.078125 329.863281 C 670.4375 326.925781 667.125 323.71875 666.503906 318.761719 C 665.816406 313.328125 667.316406 308.671875 672.128906 305.640625 C 677.222656 302.4375 682.546875 302.417969 687.738281 305.441406 C 690.582031 307.097656 692.878906 309.410156 694.457031 312.386719 C 693.519531 314.113281 691.929688 314.894531 689.988281 316.117188 C 688.542969 314.511719 687.246094 312.660156 685.566406 311.277344 C 682.160156 308.480469 676.847656 308.746094 674.175781 311.585938 C 671.519531 314.40625 671.648438 319.066406 674.816406 322.488281 C 676.613281 324.429688 678.824219 326.007813 680.933594 327.636719 C 684.34375 330.273438 687.828125 332.816406 690.792969 335.972656 C 697.34375 342.945313 697.597656 351.640625 691.433594 357.886719 C 685.222656 364.179688 674.613281 364.246094 668.085938 358.03125 C 666.019531 356.066406 664.414063 353.757813 662.785156 350.792969 "/>
<path style=" stroke:none;fill-rule:nonzero;fill:rgb(11.799622%,47.499084%,56.498718%);fill-opacity:1;" d="M 544.4375 347.734375 C 550.203125 334.476563 555.84375 321.925781 561.089844 309.210938 C 562.675781 305.367188 564.640625 303.652344 569.28125 305.191406 C 561.148438 323.890625 553.023438 342.570313 544.898438 361.253906 C 544.503906 361.324219 544.105469 361.398438 543.710938 361.472656 C 535.691406 342.824219 527.671875 324.183594 519.519531 305.226563 C 523.671875 303.992188 525.882813 304.746094 527.535156 308.914063 C 532.179688 320.632813 537.359375 332.144531 542.351563 343.726563 C 542.859375 344.902344 543.53125 346.007813 544.4375 347.734375 "/>
<path style=" stroke:none;fill-rule:nonzero;fill:rgb(72.198486%,13.299561%,50.999451%);fill-opacity:1;" d="M 210.585938 242.660156 C 213.714844 246.910156 216.855469 251.152344 219.96875 255.417969 C 229.675781 268.722656 239.359375 282.050781 249.089844 295.339844 C 250.714844 297.558594 252.742188 300.050781 250.71875 302.515625 C 248.203125 305.574219 244.792969 307.953125 240.621094 308.320313 C 238.894531 308.472656 237.714844 306.964844 237.019531 305.394531 C 227.9375 284.945313 218.871094 264.492188 209.816406 244.03125 C 209.714844 243.800781 209.804688 243.484375 209.804688 243.203125 C 210.0625 243.023438 210.324219 242.839844 210.585938 242.660156 "/>
<path style=" stroke:none;fill-rule:nonzero;fill:rgb(65.499878%,17.298889%,16.099548%);fill-opacity:1;" d="M 215.722656 236.816406 C 229.921875 242.730469 244.125 248.636719 258.324219 254.558594 C 264.339844 257.070313 270.363281 259.566406 276.351563 262.148438 C 281.0625 264.179688 281.535156 265.777344 278.976563 270.355469 C 278.539063 271.132813 278.113281 271.914063 277.648438 272.675781 C 275.003906 277.023438 273.34375 277.4375 269.03125 274.515625 C 257.238281 266.527344 245.488281 258.484375 233.726563 250.449219 C 227.519531 246.203125 221.328125 241.933594 215.128906 237.675781 C 215.328125 237.390625 215.523438 237.101563 215.722656 236.816406 "/>
<path style=" stroke:none;fill-rule:nonzero;fill:rgb(11.799622%,47.499084%,56.498718%);fill-opacity:1;" d="M 468.191406 383.007813 L 476.890625 383.007813 L 476.890625 448.523438 C 474.28125 449.476563 471.382813 448.847656 468.191406 448.910156 "/>
<path style=" stroke:none;fill-rule:nonzero;fill:rgb(11.799622%,47.499084%,56.498718%);fill-opacity:1;" d="M 733.488281 383.011719 L 742.175781 383.011719 L 742.175781 448.523438 C 739.574219 449.609375 736.660156 448.636719 733.488281 449.042969 "/>
<path style=" stroke:none;fill-rule:nonzero;fill:rgb(14.099121%,61.999512%,84.698486%);fill-opacity:1;" d="M 202.671875 245.914063 C 203.644531 254.042969 204.640625 262.035156 205.546875 270.035156 C 207.199219 284.621094 208.648438 299.230469 210.507813 313.789063 C 211.035156 317.917969 209.65625 319.230469 205.847656 319.226563 C 196.898438 319.21875 197.015625 320.316406 197.589844 311.0625 C 198.878906 290.175781 200.121094 269.28125 201.40625 248.394531 C 201.453125 247.566406 201.257813 246.554688 202.671875 245.914063 "/>
<path style=" stroke:none;fill-rule:nonzero;fill:rgb(11.799622%,47.499084%,56.498718%);fill-opacity:1;" d="M 750.265625 305.109375 C 750.90625 306.8125 750.742188 308.265625 750.445313 309.949219 C 746.636719 311.09375 742.578125 309.808594 738.324219 310.785156 L 738.324219 360.40625 C 736.339844 361.914063 734.617188 360.988281 732.554688 361.382813 L 732.554688 310.554688 L 720.488281 310.554688 C 719.625 308.507813 720.015625 306.941406 720.03125 305.109375 "/>
<path style=" stroke:none;fill-rule:nonzero;fill:rgb(11.799622%,47.499084%,56.498718%);fill-opacity:1;" d="M 510.835938 304.808594 L 510.835938 360.644531 C 509.148438 361.796875 507.375 361.054688 505.328125 361.410156 L 505.328125 305.128906 C 506.992188 304.421875 508.703125 304.847656 510.835938 304.808594 "/>
<path style=" stroke:none;fill-rule:nonzero;fill:rgb(11.799622%,47.499084%,56.498718%);fill-opacity:1;" d="M 707.117188 305.191406 C 708.777344 304.367188 710.371094 304.742188 712.339844 304.914063 L 712.339844 360.84375 C 710.636719 361.597656 709.035156 361.316406 707.117188 361.054688 "/>
<path style=" stroke:none;fill-rule:nonzero;fill:rgb(11.799622%,47.499084%,56.498718%);fill-opacity:1;" d="M 194.070313 249.746094 C 190.722656 263.257813 187.402344 276.773438 184.011719 290.273438 C 181.992188 298.328125 179.914063 306.367188 177.753906 314.382813 C 177.230469 316.335938 177.191406 318.558594 175.40625 320 C 168.394531 318.757813 168.386719 318.757813 170.796875 312.269531 C 178.542969 291.429688 186.296875 270.59375 194.046875 249.753906 "/>
<path style=" stroke:none;fill-rule:nonzero;fill:rgb(11.799622%,47.499084%,56.498718%);fill-opacity:1;" d="M 777.234375 280.355469 C 776.832031 282.867188 775.453125 284.523438 772.839844 284.464844 C 770.269531 284.410156 768.578125 282.757813 768.566406 280.238281 C 768.554688 277.476563 770.367188 275.726563 773.132813 275.882813 C 775.632813 276.019531 777.046875 277.753906 777.234375 280.355469 "/>
<path style=" stroke:none;fill-rule:nonzero;fill:rgb(11.799622%,47.499084%,56.498718%);fill-opacity:1;" d="M 402.492188 232.128906 C 400.019531 231.921875 398.464844 230.652344 398.492188 227.917969 C 398.523438 225.222656 400.003906 223.800781 402.65625 223.765625 C 405.390625 223.730469 406.84375 225.382813 406.820313 227.9375 C 406.796875 230.464844 405.375 232.078125 402.492188 232.128906 "/>
<path style=" stroke:none;fill-rule:nonzero;fill:rgb(11.799622%,47.499084%,56.498718%);fill-opacity:1;" d="M 408.210938 227.46875 C 408.4375 225.066406 409.851563 223.648438 412.535156 223.773438 C 415.222656 223.898438 416.578125 225.476563 416.480469 228.109375 C 416.378906 230.800781 414.75 232.144531 412.136719 232.082031 C 409.402344 232.015625 408.234375 230.339844 408.210938 227.46875 "/>
<path style=" stroke:none;fill-rule:nonzero;fill:rgb(11.799622%,47.499084%,56.498718%);fill-opacity:1;" d="M 194.046875 249.753906 L 194.160156 249.617188 C 194.160156 249.617188 194.066406 249.746094 194.070313 249.746094 C 194.070313 249.746094 194.046875 249.753906 194.046875 249.753906 "/>
</g>
</svg>
